<svg width="39" height="32" viewBox="0 0 39 32" fill="none" xmlns="http://www.w3.org/2000/svg">
    <path d="M34.4728 13.6073C34.4414 12.162 34.0113 10.8352 33.428 9.52344C33.0117 8.58708 32.52 7.73509 31.7567 7.10612C31.7567 7.0988 31.7567 7.09277 31.7567 7.08545C31.6276 6.06084 31.5346 5.02589 31.3615 4.00773C31.2199 3.17469 30.9216 2.32443 30.2138 1.80566C28.6928 0.690635 26.5032 2.19312 25.2117 3.03391C24.8475 2.9646 24.4798 2.9082 24.1182 2.81478C23.5727 2.674 23.0329 2.53021 22.4736 2.45315C21.792 2.3566 21.1013 2.34215 20.4162 2.4101C20.3836 2.38235 20.344 2.36417 20.3017 2.35758C20.0874 2.32132 19.871 2.29917 19.6538 2.29128C18.7592 0.999743 17.3669 0.0397028 15.7521 0.283803H15.7469C15.7254 0.287247 15.7038 0.289398 15.6827 0.293273C15.6521 0.296892 15.6226 0.30741 15.5966 0.324037C15.5706 0.340664 15.5487 0.362968 15.5325 0.389276C15.0473 0.46806 14.6065 0.672123 14.284 1.12717C13.7386 1.89822 13.3713 2.80617 13.0032 3.68614C12.7832 4.05379 12.5912 4.43953 12.5503 4.80977C12.5477 4.83551 12.5519 4.86148 12.5624 4.88511C10.6294 6.55851 8.86774 8.40196 7.99165 10.8692C7.50474 12.2417 7.23223 13.7739 7.41864 15.229C7.59085 16.5722 8.20992 17.7974 8.88583 18.9555C7.4195 20.0159 11.1938 22.6222 12.0475 23.0454C12.3204 23.7088 12.2408 24.5737 12.3678 25.2578C12.5142 26.0495 12.7609 26.8412 13.1905 27.5279C13.6093 28.1901 14.1958 28.7297 14.8906 29.0919C15.5226 29.4256 16.3767 29.785 17.0974 29.7954C17.1013 29.7954 17.1047 29.7954 17.1082 29.7954C17.3088 30.4678 17.7479 31.3047 18.4983 31.278C19.395 31.2458 19.4368 30.4459 19.3068 29.7575C19.9702 29.8935 20.6547 29.8539 21.3332 29.8634C21.3311 29.996 21.2996 30.1419 21.3255 30.2625C21.3416 30.3328 21.3645 30.4015 21.3939 30.4674C21.3879 30.4879 21.3867 30.5096 21.3905 30.5307C21.4245 30.7089 21.4718 30.8983 21.6139 31.024C21.7018 31.1063 21.8186 31.1504 21.9389 31.1467C22.0389 31.1947 22.1503 31.2139 22.2605 31.2023C22.9717 31.1325 23.072 30.2698 23.0484 29.6697C26.0189 29.9766 27.8976 26.7852 27.9131 24.1113C28.038 23.7351 28.6261 23.6558 28.9438 23.565L29.98 23.2688C30.5152 23.116 31.1316 23.0079 31.5759 22.6493C32.0564 22.2618 32.1718 21.5657 31.8407 21.1244C32.2979 20.7718 32.7237 20.1566 32.9144 19.8927C33.3449 19.3004 33.6712 18.6576 33.7982 17.9692C33.8198 17.9262 33.8413 17.8831 33.8619 17.837C34.441 16.5627 34.5034 14.9884 34.4728 13.6073ZM12.8646 4.62207H12.8702L12.7454 4.72797C12.7285 4.72344 12.7107 4.72352 12.6939 4.72822C12.6771 4.73292 12.6619 4.74205 12.6498 4.75466C12.7124 4.69735 12.7853 4.65236 12.8646 4.62207Z" fill="#F9F8F7"/>
    <path d="M13.1423 26.8494C12.8765 26.3957 12.6688 25.9105 12.5241 25.405C12.3558 24.7902 12.3756 24.178 12.3248 23.5503C12.3024 23.274 12.2869 23.0027 12.0605 22.8142C11.9496 22.7279 11.8254 22.6603 11.6928 22.614L10.3195 21.7276C9.98884 21.5123 9.66768 21.2006 9.26257 21.1838C9.23029 21.1832 9.19824 21.1894 9.16855 21.2021C9.13886 21.2148 9.11221 21.2337 9.09036 21.2574C7.70971 21.1791 6.41559 21.821 5.58987 22.9562C4.80075 24.0416 4.3612 26.0034 5.13009 27.2304C4.96606 27.3087 4.78568 27.3884 4.74263 27.5748C4.69958 27.7771 4.83777 27.9398 5.0061 28.0259C5.06766 28.0569 5.1443 28.0539 5.20457 28.078C5.50162 28.0597 5.76222 28.1745 5.98638 28.4224C6.03676 28.4865 6.09457 28.5443 6.15858 28.5946C6.49082 28.9244 6.853 29.2226 7.24046 29.4854C8.77308 30.5152 10.4495 30.488 11.9735 29.4608C12.3574 29.1963 12.7223 28.9053 13.0657 28.5899C13.2943 28.3846 13.5647 28.193 13.5914 27.8628C13.6206 27.4912 13.3145 27.1533 13.1423 26.8494Z" fill="#FDE41B"/>
    <path d="M33.536 10.0703C33.5274 10.0703 33.5184 10.0703 33.5093 10.0703C33.3164 9.67448 33.1064 9.28702 32.879 8.90788C32.8572 8.86889 32.8218 8.83936 32.7795 8.82497C32.7372 8.81058 32.6911 8.81236 32.65 8.82995C32.394 8.32339 32.1368 7.81725 31.8785 7.31154C31.7686 7.11235 31.6732 6.90545 31.5931 6.69246C31.5216 6.46831 31.4802 6.23567 31.47 6.00063C31.4368 5.50382 31.4024 5.01046 31.3128 4.52097C31.16 3.68147 30.9254 2.74596 30.2275 2.18888C29.6102 1.69638 28.7715 1.58186 28.01 1.70714C27.04 1.86686 26.1941 2.43083 25.3985 2.97801C24.7447 2.82929 24.0837 2.71433 23.4181 2.6336V2.62886C23.3751 2.47991 23.1844 2.49369 23.1292 2.60002C22.7934 2.56386 22.4572 2.53631 22.1206 2.51736C22.1145 2.51692 22.1085 2.51692 22.1025 2.51736C21.2755 2.34149 20.4191 2.35798 19.5995 2.56558C19.4561 1.76612 18.9412 1.06869 18.2395 0.653246C17.4164 0.165907 16.3991 0.139646 15.5161 0.481041C14.5806 0.84181 13.8405 1.56034 13.4018 2.45752C13.1809 2.90999 13.0292 3.39312 12.952 3.8907C12.9145 4.13178 12.9214 4.38578 12.8706 4.62257C12.8198 4.85935 12.6123 4.95105 12.4108 5.05308C11.3725 5.57309 10.4764 6.33821 9.80018 7.28227C9.77748 7.3195 9.76771 7.36319 9.77238 7.40655C9.77705 7.44991 9.7959 7.49051 9.82601 7.52206C10.6104 8.20012 11.7405 8.25092 12.7281 8.29698C13.8513 8.35237 14.9772 8.27477 16.0822 8.0658C18.0875 7.68092 19.9904 6.79923 21.4881 5.39662C22.1451 4.78442 22.7075 4.07799 23.1568 3.30047C23.1723 3.30779 23.1882 3.31381 23.2037 3.32156C23.2368 3.33809 23.2736 3.34553 23.3105 3.34309C23.8471 4.96943 24.7758 6.43867 26.0146 7.62113C27.2535 8.80359 28.7644 9.6629 30.4139 10.1232C30.9284 10.2666 31.4528 10.3721 31.9827 10.4388C32.2496 10.4728 32.5178 10.4986 32.7869 10.5059C32.9893 10.5111 33.1933 10.4999 33.3957 10.5059C33.4098 10.5089 33.4243 10.5096 33.4387 10.5081C33.4912 10.5081 33.5433 10.512 33.5954 10.5167C33.8976 10.5477 33.8852 10.0195 33.536 10.0703Z" fill="#C8B1AF"/>
    <path d="M15.6651 28.2353C15.5566 28.0429 15.2639 27.8651 15.2492 27.6326C15.2432 27.5357 15.3328 27.4763 15.3917 27.4113C15.471 27.3252 15.5428 27.2253 15.5484 27.1022C15.5609 26.8228 15.2411 26.6717 15.0254 26.5744C14.78 26.4655 14.5337 26.4349 14.272 26.3936C14.0782 26.363 13.8329 26.3023 13.8893 26.0513C13.9487 25.787 14.2397 25.6285 14.4201 25.452C14.7774 25.1029 15.3082 24.3026 14.6388 23.9844C14.3417 23.8428 13.9861 23.7984 13.668 23.7214C13.302 23.6333 12.9365 23.5426 12.5715 23.4493C12.5518 23.4436 12.531 23.4426 12.5108 23.4465C12.4907 23.4504 12.4718 23.459 12.4557 23.4717C12.4354 23.4757 12.4168 23.4855 12.402 23.4998C12.3871 23.5142 12.3768 23.5325 12.3721 23.5526C12.3106 23.8234 12.3373 24.1045 12.3614 24.3801C12.3853 24.6579 12.4239 24.9342 12.4772 25.2079C12.5881 25.7674 12.7605 26.3128 12.9912 26.8344C13.218 27.3488 13.5018 27.8362 13.8372 28.2874C14.1252 28.6748 14.5066 29.2052 15.0516 29.1872C15.539 29.1704 15.9251 28.6964 15.6651 28.2353Z" fill="#C8B1AF"/>
    <path d="M27.8603 24.2046C27.3506 24.4023 26.8555 24.6359 26.3789 24.9037C26.0255 25.1026 25.6122 25.395 25.7637 25.8616C25.8791 26.2185 26.351 26.5139 26.1353 26.9224C25.8938 27.3788 25.3044 27.3727 24.8868 27.5505C24.6651 27.6444 24.4942 27.8368 24.5695 28.09C24.6044 28.2079 24.6664 28.3052 24.6487 28.4314C24.6389 28.4926 24.6167 28.5513 24.5836 28.6037C24.5504 28.6562 24.507 28.7014 24.4558 28.7366C24.3951 28.7822 24.4012 28.8886 24.4511 28.9381C24.7266 29.211 25.1262 29.0642 25.4008 28.8679C25.7371 28.6278 26.049 28.3552 26.332 28.0542C26.8968 27.4515 27.3515 26.7317 27.5779 25.9344C27.7063 25.4863 27.7539 25.019 27.7187 24.5542C27.7181 24.5487 27.7171 24.5432 27.7157 24.5378C27.794 24.5008 27.8728 24.4629 27.9507 24.4267C28.0709 24.3699 27.9886 24.1547 27.8603 24.2046Z" fill="#C8B1AF"/>
    <path d="M14.4259 24.202C14.277 24.0151 14.0484 23.9841 13.8374 24.0844C13.6467 24.1753 13.4499 24.2136 13.2442 24.2609C13.022 24.3096 12.7478 24.3195 12.5627 24.4555C12.2708 24.6708 12.2032 25.1289 12.5627 25.3295C13.1628 25.6644 13.9347 25.1904 14.3902 24.8008C14.5607 24.6566 14.5572 24.3673 14.4259 24.202Z" fill="#B28885"/>
    <path d="M14.8017 27.11C14.7182 26.9116 14.4861 26.7811 14.2704 26.8491C14.2205 26.8651 14.171 26.8793 14.1197 26.8922L14.0836 26.9025C14.0474 26.9077 14.0108 26.9102 13.9742 26.9103C13.8928 26.9171 13.812 26.9305 13.7327 26.9503C13.6342 26.9778 13.5473 27.0366 13.4852 27.1178C13.423 27.1991 13.389 27.2983 13.3883 27.4006C13.3965 27.5883 13.5252 27.8212 13.7327 27.8509C13.8121 27.8675 13.8931 27.8752 13.9742 27.8738C14.0625 27.8661 14.1499 27.85 14.2351 27.8255C14.3668 27.7866 14.4947 27.736 14.6174 27.6744C14.8189 27.575 14.8826 27.302 14.8017 27.11Z" fill="#B28885"/>
    <path d="M13.7108 26.3715C13.6619 26.2916 13.5853 26.2325 13.4956 26.2053C13.4037 26.1803 13.307 26.1788 13.2144 26.201C13.1246 26.2251 13.0419 26.2704 12.9734 26.3332C12.9045 26.3879 12.8657 26.5088 12.8657 26.5915C12.8667 26.6883 12.9053 26.781 12.9734 26.8498C13.0419 26.9183 13.1347 26.957 13.2317 26.9574C13.2919 26.9548 13.3509 26.9385 13.4039 26.9097C13.4656 26.9103 13.5263 26.8945 13.5799 26.864C13.6209 26.8401 13.6568 26.8082 13.6855 26.7704C13.7142 26.7325 13.7351 26.6894 13.7471 26.6435C13.7591 26.5975 13.7619 26.5497 13.7554 26.5026C13.7489 26.4556 13.7331 26.4103 13.7091 26.3694L13.7108 26.3715Z" fill="#B28885"/>
    <path d="M27.3289 25.2462C27.1395 25.1816 26.8984 25.2186 26.6991 25.2212C26.4377 25.2246 26.1863 25.4489 26.1988 25.7215C26.201 25.8535 26.2544 25.9795 26.3478 26.0729C26.4411 26.1663 26.567 26.2198 26.6991 26.2221C26.8967 26.2243 27.1412 26.26 27.3289 26.1955C27.5278 26.1274 27.7004 25.9449 27.6905 25.7219C27.6875 25.6148 27.651 25.5113 27.5861 25.426C27.5212 25.3406 27.4313 25.2778 27.3289 25.2462Z" fill="#B28885"/>
    <path d="M27.0094 26.7314C26.8506 26.6104 26.6034 26.5953 26.4097 26.6173C26.1751 26.644 25.9874 26.8089 26.0223 27.0646C26.0558 27.3138 26.2806 27.4344 26.5152 27.3931H26.5217H26.5303C26.5656 27.3931 26.6004 27.3931 26.6357 27.3931C26.643 27.3926 26.6504 27.3926 26.6577 27.3931C26.6947 27.3991 26.7322 27.4043 26.7696 27.4086C26.7886 27.4086 26.8079 27.4047 26.8273 27.4038C26.9814 27.3939 27.1394 27.2988 27.176 27.1382C27.213 26.9694 27.142 26.8334 27.0094 26.7314Z" fill="#B28885"/>
    <path d="M26.3788 27.6188L25.8386 27.4935C25.6547 27.4505 25.4382 27.5504 25.3938 27.7462C25.3508 27.9339 25.4502 28.141 25.6461 28.1905L26.1838 28.3266C26.3698 28.3735 26.5907 28.2663 26.6354 28.0683C26.678 27.8827 26.5786 27.6649 26.3788 27.6188Z" fill="#B28885"/>
    <path d="M15.3922 10.5814C15.063 10.5134 14.7215 10.5367 14.4046 10.6486C14.1175 10.6864 13.8489 10.8112 13.6348 11.0063C13.2138 11.4002 13.0786 12.0826 13.3895 12.5811C13.7558 13.1709 14.5204 13.1597 15.1231 13.0499C15.7689 12.932 16.4383 12.563 16.5132 11.8445C16.5834 11.1712 16.0009 10.7015 15.3922 10.5814Z" fill="#FDC0B1"/>
    <path d="M28.0383 12.1578C27.5845 11.8345 27.0141 11.6283 26.4729 11.8689C26.4142 11.895 26.3578 11.9263 26.3046 11.9624C26.1741 12.0157 26.059 12.1007 25.9697 12.2097C25.8803 12.3187 25.8195 12.4482 25.7927 12.5866C25.6584 13.1941 26.0846 13.6935 26.6021 13.9337C27.0472 14.2195 27.6069 14.3793 28.1089 14.2708C28.5062 14.1847 28.8166 13.9057 28.9075 13.5587C29.2071 12.9465 28.7013 12.4346 28.0383 12.1578Z" fill="#FDC0B1"/>
    <path d="M16.1767 2.34345C15.7892 2.06534 15.2619 1.87763 14.8443 2.20052C14.5627 2.41836 14.5046 2.72962 14.434 3.04088C14.4168 3.10029 14.4013 3.16056 14.3909 3.22212C14.3649 3.32282 14.3284 3.4205 14.282 3.51358C14.1813 3.7086 14.322 3.8765 14.4865 3.90491C14.533 3.93675 14.5856 3.95862 14.6409 3.96914C14.6962 3.97966 14.7532 3.97861 14.8081 3.96605L15.7897 3.71334C16.0023 3.65866 16.2447 3.62207 16.4049 3.45503C16.7484 3.09986 16.5228 2.59185 16.1767 2.34345Z" fill="#FDC0B1"/>
    <path d="M30.2709 4.18413C30.0884 3.92022 29.8258 3.75362 29.496 3.80959C29.1343 3.87115 28.9281 4.17164 28.622 4.33653C28.4498 4.42995 28.4541 4.60129 28.5454 4.71796C28.5454 4.72184 28.5454 4.72571 28.5454 4.72959C28.6061 5.37536 29.5786 5.71546 30.1224 5.67671C30.9705 5.61946 30.5744 4.62454 30.2709 4.18413Z" fill="#FDC0B1"/>
    <g style="mix-blend-mode:multiply" opacity="0.43">
        <path d="M14.0083 27.4287C13.6607 26.6958 13.3934 25.9275 13.211 25.1371C13.0517 24.4306 12.8378 23.6544 12.8744 22.9195C13.1465 22.7357 13.1163 22.2406 12.8262 22.0701C11.5919 21.3456 9.68342 20.8216 9.2331 19.277C9.09878 18.8167 8.44355 19.0135 8.52491 19.4724C8.66354 20.2516 9.0975 20.9452 9.67826 21.476C10.3856 22.1218 11.2023 22.4429 12.0245 22.8864C12.2484 22.8993 12.3724 23.0312 12.3965 23.282C12.4025 23.347 12.4086 23.4112 12.4142 23.4775C12.4542 23.7302 12.4374 24.0027 12.4572 24.2584C12.4872 24.675 12.5487 25.0888 12.641 25.4961C12.8244 26.3141 13.1271 27.046 13.6523 27.7047C13.8206 27.9208 14.1091 27.6457 14.0083 27.4287Z" fill="#F7C9B6"/>
    </g>
    <g style="mix-blend-mode:multiply" opacity="0.43">
        <path d="M31.6841 21.8778C30.6595 22.8344 29.0214 22.6265 27.8482 23.3536C27.5038 23.5689 27.8052 24.0644 28.1625 23.8917C29.4639 23.2636 31.0685 23.4763 32.0617 22.2558C32.2748 21.9928 31.9402 21.638 31.6841 21.8778Z" fill="#F7C9B6"/>
    </g>
    <g style="mix-blend-mode:multiply" opacity="0.43">
        <path d="M23.8149 20.3791C22.6293 20.4222 21.4604 20.5668 20.2709 20.5389C19.0494 20.5024 17.8348 20.3415 16.646 20.0584C16.1557 19.9448 15.9645 20.6504 16.4389 20.8092C18.7305 21.5773 21.5853 21.9419 23.9156 21.1222C24.2975 20.9875 24.2648 20.3636 23.8149 20.3791Z" fill="#F7C9B6"/>
    </g>
    <g style="mix-blend-mode:multiply" opacity="0.43">
        <path d="M34.0231 11.6577C33.997 11.5881 33.9471 11.53 33.8823 11.4937C33.7689 11.0644 33.6306 10.6421 33.4682 10.2288C33.3855 9.74751 33.1513 9.2619 32.9692 8.84129C32.6663 8.12802 32.2637 7.46127 31.7737 6.86094C31.6966 6.76751 31.3738 6.50878 31.3751 6.41794C31.3751 6.31892 31.5042 6.18804 31.5447 6.08989C31.6945 5.73299 31.6997 5.3662 31.6519 4.98778C31.5559 4.2275 31.2214 3.51758 30.8864 2.83522C30.697 2.45121 30.0254 2.72372 30.1851 3.13098C30.4774 3.86931 30.7689 4.63132 30.6707 5.43939C30.6311 5.76485 30.4581 6.14499 30.4822 6.47261C30.5033 6.75761 30.6974 6.96727 30.8584 7.18769C31.2906 7.77733 31.6841 8.3944 32.0363 9.03502C32.2714 9.46553 32.4134 9.99205 32.639 10.4467C33.2146 12.2453 33.4269 14.1766 32.9438 15.9882C32.6425 17.111 32.0665 18.2566 31.2295 19.0733C30.7497 19.5305 30.2001 19.9084 29.6013 20.1926C28.9198 20.5185 28.1376 20.4509 27.4186 20.6705C27.1491 20.7531 27.19 21.1789 27.4867 21.1729C28.6181 21.1496 29.9488 21.1797 31.0965 20.8543C31.1981 21.0097 31.4258 21.1023 31.6015 21.0007C33.0222 20.1784 33.9883 18.316 34.3529 16.7679C34.752 15.0747 34.659 13.2842 34.0231 11.6577Z" fill="#F7C9B6"/>
    </g>
    <g style="mix-blend-mode:multiply" opacity="0.43">
        <path d="M22.6035 9.1617C22.4575 8.89823 22.1148 8.84399 21.8634 8.97572C21.7813 9.02477 21.7218 9.10411 21.6976 9.19663C21.6735 9.28915 21.6866 9.38746 21.7342 9.47038C21.7836 9.54913 21.8602 9.60692 21.9495 9.63268C22.0563 9.68508 22.1754 9.70726 22.2939 9.69683C22.4231 9.68219 22.532 9.63828 22.6009 9.52075C22.6326 9.46633 22.6495 9.40455 22.6499 9.34157C22.6504 9.27859 22.6344 9.21658 22.6035 9.1617Z" fill="#F7C9B6"/>
    </g>
    <g style="mix-blend-mode:multiply" opacity="0.43">
        <path d="M13.9542 1.44352C13.7122 1.83054 13.547 2.26056 13.4677 2.71008C13.4634 2.71567 13.4587 2.72041 13.4548 2.72644C13.1573 3.18407 12.9653 3.71662 12.6876 4.19276C12.4969 4.51909 12.9812 4.92463 13.2292 4.61036C13.3863 4.40974 13.5607 4.30039 13.8224 4.29694C13.8753 4.29617 13.9273 4.28339 13.9744 4.25958C14.0216 4.23577 14.0628 4.20155 14.0948 4.15951C14.1268 4.11746 14.1488 4.06868 14.1592 4.01686C14.1696 3.96505 14.1681 3.91155 14.1548 3.8604C13.9662 3.11131 14.0377 2.38892 14.3959 1.70182C14.5483 1.40907 14.1285 1.16239 13.9542 1.44352Z" fill="#F7C9B6"/>
    </g>
    <path d="M23.4466 11.5456C23.4455 11.4841 23.4305 11.4236 23.4026 11.3687C23.3748 11.3139 23.3349 11.266 23.286 11.2287C23.237 11.1914 23.1803 11.1657 23.12 11.1535C23.0597 11.1413 22.9974 11.1429 22.9378 11.1581C22.7772 11.1973 22.0337 11.2442 22.0449 10.9537C22.0556 10.6953 21.6785 10.5145 21.5033 10.7294C21.2019 11.0974 20.7284 11.2572 20.3327 10.911C20.0064 10.6269 19.5793 11.0402 19.8247 11.3708C19.7139 11.704 19.6945 12.0608 19.7683 12.404C19.8136 12.6694 19.9153 12.9219 20.0667 13.1445C20.5501 13.8519 21.3815 14.0167 22.1482 13.6857C23.0062 13.3137 23.4918 12.4695 23.4466 11.5456Z" fill="#F36291"/>
    <path d="M23.0312 13.0079C22.8724 12.4315 22.323 12.239 21.8017 12.0703C21.1004 11.8438 20.4064 11.7577 19.7068 12.0272C19.3293 12.1732 19.4322 12.716 19.8015 12.704C19.822 12.8169 19.8862 12.9171 19.9802 12.983C20.3733 13.2723 20.7185 13.6559 21.2115 13.7686C21.7406 13.8901 22.2662 13.6881 22.7518 13.4987C22.9533 13.4204 23.0919 13.2344 23.0312 13.0079Z" fill="#F08FAB"/>
    <path d="M13.2756 27.3774C13.2756 27.3727 13.2756 27.3671 13.2731 27.3619C13.2544 27.2881 13.2195 27.2193 13.171 27.1607C13.1224 27.102 13.0614 27.0549 12.9924 27.0227C13.0033 26.804 12.9872 26.5848 12.9446 26.3701C12.8755 26.0107 12.7726 25.6587 12.6372 25.3187C12.685 24.9313 12.4146 24.5158 12.174 24.2425C12.1669 24.2346 12.1593 24.2273 12.1511 24.2205C12.2562 23.8692 12.2855 23.5067 12.1942 23.1658C12.1081 22.8467 11.839 22.672 11.5368 22.576C11.4158 22.5372 11.0839 22.5669 10.9836 22.5062C10.8833 22.4455 10.8919 22.294 10.7559 22.232C10.5359 22.1325 10.3606 22.4201 10.5647 22.5587C10.6258 22.6018 10.6413 22.8002 10.7167 22.8687C10.9057 23.0409 11.1989 22.9548 11.4055 23.1038C12.0749 23.5799 11.1209 24.9455 10.7313 25.3183C10.433 25.6042 10.8656 25.9998 11.173 25.76C11.3293 25.6377 11.492 25.5202 11.644 25.3919C11.9023 25.1767 11.7947 25.1973 11.9522 25.3919C12.2536 25.7686 12.3828 26.5784 12.3397 27.0322C12.2967 27.4859 12.0642 27.8691 11.7719 28.2178C11.3977 28.5523 11.0452 28.8868 10.6095 29.0982C10.2168 29.2054 9.81103 29.2568 9.40405 29.251C8.52796 29.236 7.90544 28.8464 7.20457 28.3702C6.91096 28.1709 6.60659 27.907 6.2949 27.7412C5.95608 27.5608 5.52643 27.6904 5.15103 27.606C4.82298 27.532 4.69038 28.009 5.01197 28.1102C5.23842 28.1778 5.47181 28.2196 5.70768 28.2346C6.13044 28.272 6.19071 28.3013 6.44557 28.5855C6.72153 28.8933 7.00524 29.1951 7.34707 29.4275C8.08712 29.9278 8.95029 30.1065 9.83413 30.0402C11.2466 29.9338 13.2033 29.1283 13.5189 27.5608C13.5262 27.5294 13.5242 27.4966 13.5132 27.4662C13.5022 27.4359 13.4827 27.4094 13.4569 27.39C13.4312 27.3706 13.4003 27.3591 13.3681 27.3568C13.336 27.3546 13.3038 27.3618 13.2756 27.3774Z" fill="#FDC01B"/>
    <path d="M6.75053 23.0931C6.72771 23.0556 6.69577 23.0244 6.65769 23.0025C6.61961 22.9806 6.57661 22.9687 6.53269 22.9678C6.37168 22.9566 6.1956 23.0578 6.08798 23.1693C5.99283 23.2675 5.9825 23.4423 6.08798 23.5387C6.12926 23.5759 6.18037 23.6004 6.23521 23.6093C6.2744 23.6379 6.32185 23.6531 6.37039 23.6523C6.46252 23.6485 6.54647 23.583 6.61234 23.5232C6.66763 23.4722 6.7143 23.4126 6.75053 23.3467C6.77262 23.3081 6.78424 23.2644 6.78424 23.2199C6.78424 23.1754 6.77262 23.1317 6.75053 23.0931Z" fill="#FDC01B"/>
    <path d="M5.52684 26.1438C5.47518 25.8932 5.44074 25.6702 5.50661 25.4188C5.5742 25.1605 5.15617 25.052 5.10967 25.3095C5.05199 25.6281 5.06232 25.9828 5.23194 26.2678C5.32966 26.4297 5.56472 26.3195 5.52684 26.1438Z" fill="white"/>
    <path d="M5.64373 26.9054L5.6179 26.7461C5.60734 26.7077 5.58195 26.675 5.54731 26.6553C5.51268 26.6356 5.47164 26.6305 5.43322 26.6411C5.39531 26.6524 5.36326 26.6779 5.34376 26.7124C5.32426 26.7468 5.31883 26.7874 5.3286 26.8257C5.34065 26.8778 5.35271 26.9304 5.36519 26.9825C5.37555 27.0193 5.40004 27.0506 5.43335 27.0694C5.46665 27.0883 5.50606 27.0932 5.54299 27.0832C5.57929 27.072 5.60993 27.0473 5.62866 27.0143C5.64739 26.9812 5.65278 26.9423 5.64373 26.9054Z" fill="white"/>
    <path d="M7.8089 23.5723C7.80833 23.5508 7.80617 23.5294 7.80244 23.5082C7.81794 23.3493 7.70256 23.1702 7.5239 23.1849C7.51012 23.1849 7.49678 23.1879 7.483 23.1896C7.39145 23.1727 7.29685 23.1879 7.21522 23.2327C7.0301 23.3343 6.88071 23.5142 6.75716 23.6808C6.628 23.853 6.49067 24.036 6.5475 24.2663C6.56128 24.3217 6.58662 24.3736 6.62187 24.4185C6.65712 24.4634 6.70147 24.5003 6.75201 24.5269C6.80255 24.5534 6.85814 24.569 6.91512 24.5725C6.9721 24.5761 7.02919 24.5675 7.08262 24.5474C7.28884 24.4743 7.45631 24.2921 7.58029 24.0829C7.71892 23.9413 7.81234 23.7592 7.8089 23.5723Z" fill="#FB7F1C"/>
    <path d="M7.01363 24.9533C6.73724 24.8861 6.38981 25.0394 6.17973 25.2116C6.06534 25.3058 5.98135 25.4317 5.9383 25.5735C5.89526 25.7152 5.89508 25.8666 5.93778 26.0085C6.04627 26.3408 6.40359 26.5087 6.73594 26.439C6.97531 26.3886 7.17765 26.2099 7.29561 25.9999C7.33494 25.9275 7.36132 25.8488 7.37353 25.7674C7.56597 25.4751 7.35158 25.0355 7.01363 24.9533Z" fill="#FFAD12"/>
    <path d="M9.80734 22.0022C9.64288 21.7895 9.36003 21.7172 9.10517 21.7891C9.01527 21.8155 8.93095 21.8581 8.85633 21.9148C8.74519 21.9689 8.64516 22.0434 8.56143 22.1344C8.34618 22.3737 8.30915 22.7371 8.53905 22.9833C8.7233 23.1796 8.99108 23.2279 9.24595 23.1654C9.47283 23.1099 9.72468 22.9777 9.84866 22.7737C9.91968 22.6557 9.95371 22.5191 9.94634 22.3816C9.93898 22.2441 9.89056 22.1119 9.80734 22.0022Z" fill="#FFAD12"/>
    <path d="M13.6506 19.7923C12.976 19.4048 12.2364 19.1375 11.4847 18.9442C11.1106 18.8477 10.7313 18.772 10.3499 18.7095C10.0218 18.6579 9.68733 18.601 9.35455 18.6385C9.06137 18.6721 8.7557 18.7677 8.55638 18.9988C8.31572 19.2774 8.30022 19.6571 8.42722 19.989C8.55853 20.3399 8.80004 20.6404 9.04457 20.9198C9.29866 21.2069 9.57474 21.4737 9.8703 21.7179C10.5372 22.273 11.2718 22.7413 12.0564 23.1115C12.2545 23.2054 12.428 22.9105 12.2286 22.8162C11.6047 22.5212 11.0119 22.1644 10.4592 21.7511C9.91205 21.3413 9.38296 20.8634 8.98689 20.3037C8.80177 20.0433 8.58823 19.673 8.73375 19.348C8.84137 19.1078 9.11259 19.0109 9.35583 18.9786C9.65719 18.939 9.96328 18.9907 10.2599 19.0376C10.5905 19.0898 10.9189 19.1554 11.2449 19.2343C12.0198 19.4229 12.7844 19.6868 13.4788 20.0855C13.6704 20.1952 13.8426 19.8995 13.651 19.7901L13.6506 19.7923Z" fill="#9C5043"/>
    <path d="M18.1343 8.81389C18.012 8.49789 17.8161 8.29211 17.5824 8.17587C16.9164 7.84481 15.9464 8.24002 15.5116 8.87545C15.1104 9.46224 15.0854 10.3116 15.5857 10.8498C16.3386 11.6596 17.523 11.2837 17.9784 10.371C18.2174 9.89017 18.3284 9.315 18.1343 8.81389ZM16.8944 9.25516C16.7284 9.42317 16.507 9.5252 16.2715 9.54231C16.0924 9.55609 15.8973 9.47731 15.8509 9.28745C15.8415 9.24858 15.8376 9.20858 15.8392 9.16863C15.8379 9.16613 15.8368 9.16354 15.8358 9.16088C15.8103 9.05866 15.8258 8.95053 15.8788 8.85952C15.9858 8.67944 16.1538 8.54377 16.3524 8.47723H16.3593C16.3902 8.46024 16.4219 8.44486 16.4544 8.43116C16.4769 8.42242 16.5012 8.41901 16.5252 8.42117C16.5493 8.42334 16.5725 8.43103 16.5931 8.44365C16.614 8.44469 16.6349 8.44728 16.6555 8.45139C16.7132 8.46439 16.7688 8.48571 16.8204 8.51468C16.8607 8.51745 16.9007 8.52349 16.9401 8.53276C16.9785 8.54061 17.0134 8.56079 17.0393 8.59024C17.0653 8.61968 17.0809 8.65679 17.0838 8.69593C17.0832 8.74743 17.0736 8.79842 17.0554 8.84661C17.0579 8.92215 17.0448 8.99739 17.0171 9.06772C16.9895 9.13805 16.9477 9.20198 16.8944 9.25559V9.25516Z" fill="#9C5043"/>
    <path d="M27.5205 10.0668C27.1533 9.17783 25.8764 8.8205 25.0937 9.46412C24.5862 9.88171 24.4157 10.6829 24.7188 11.2675C25.0339 11.8741 25.7494 12.1716 26.4077 12.0097C27.0659 11.8479 27.6243 11.2779 27.6221 10.583C27.6223 10.406 27.5878 10.2306 27.5205 10.0668ZM26.8894 10.732C26.6604 10.76 26.4688 10.5494 26.3595 10.3747C26.2977 10.2777 26.2487 10.1732 26.2135 10.0638C26.1929 10.0163 26.1795 9.96594 26.1739 9.91444C26.1704 9.88584 26.1704 9.85693 26.1739 9.82833C26.1732 9.79025 26.1763 9.75218 26.1829 9.71468C26.1882 9.68772 26.1998 9.66239 26.2168 9.64083C26.2338 9.61926 26.2557 9.60207 26.2807 9.59069C26.3209 9.5454 26.3719 9.51099 26.4289 9.49067C26.486 9.47035 26.5472 9.46477 26.607 9.47445C26.7108 9.49396 26.8077 9.54027 26.8881 9.60877C27.0697 9.74992 27.1943 9.95185 27.239 10.1775C27.2825 10.4069 27.1391 10.7014 26.8894 10.732Z" fill="#9C5043"/>
    <path d="M16.9095 3.44205C19.4543 2.46694 22.377 2.40625 24.976 3.20829C25.7058 3.43191 26.4087 3.73509 27.0722 4.11236C27.2637 4.22171 27.436 3.92595 27.2444 3.81703C24.7965 2.42088 21.804 2.04289 19.047 2.50957C18.2859 2.63636 17.5392 2.83826 16.8178 3.11229C16.6146 3.19021 16.7029 3.52127 16.9091 3.44248L16.9095 3.44205Z" fill="#9C5043"/>
    <path d="M13.9603 4.04748C11.9067 4.78452 10.2243 6.41874 9.05716 8.22344C7.76562 10.2202 7.01481 12.6457 7.27355 15.0337C7.43158 16.4685 7.94618 17.8409 8.77043 19.0258C8.89485 19.2058 9.19147 19.0349 9.06577 18.8536C8.34738 17.8263 7.8692 16.6505 7.6666 15.4134C7.48407 14.27 7.55338 13.0917 7.81556 11.9667C8.33002 9.75994 9.55698 7.70467 11.2166 6.1699C12.0389 5.40875 12.9916 4.75696 14.0511 4.37682C14.2564 4.30277 14.1678 3.97214 13.9598 4.04662L13.9603 4.04748Z" fill="#9C5043"/>
    <path d="M11.9852 23.0553C12.1509 24.2176 12.3266 25.3916 12.7407 26.495C13.148 27.5795 13.817 28.6269 14.8369 29.2249C15.4986 29.6124 16.2726 29.7794 17.0243 29.8823C17.2395 29.912 17.3325 29.5809 17.1151 29.5525C16.4633 29.463 15.7939 29.3304 15.2011 29.0333C14.6913 28.778 14.254 28.3833 13.9035 27.936C13.2087 27.0465 12.8604 25.9362 12.6301 24.8466C12.4979 24.2241 12.4049 23.5938 12.3154 22.964C12.2844 22.7487 11.9546 22.8396 11.9852 23.0553Z" fill="#9C5043"/>
    <path d="M23.119 29.8544C24.2629 29.8045 25.3499 29.4045 26.1916 28.6162C26.9941 27.865 27.5115 26.8511 27.8344 25.8136C28.0269 25.1774 28.1604 24.5249 28.2335 23.8643C28.2593 23.6464 27.9171 23.649 27.8917 23.8643C27.6532 25.8756 26.8666 28.1362 24.9212 29.0821C24.3615 29.355 23.7398 29.485 23.1186 29.5126C22.899 29.522 22.8982 29.8643 23.1186 29.8544H23.119Z" fill="#9C5043"/>
    <path d="M19.3711 30.0066C20.0032 30.0482 20.6374 30.046 21.2692 30.0002C21.3146 29.9993 21.3579 29.9809 21.39 29.9488C21.4221 29.9167 21.4405 29.8734 21.4414 29.828C21.4414 29.7823 21.4233 29.7385 21.391 29.7062C21.3587 29.6739 21.3149 29.6558 21.2692 29.6558C20.6374 29.7015 20.0032 29.7038 19.3711 29.6627C19.1511 29.6489 19.152 29.9911 19.3711 30.0045V30.0066Z" fill="#9C5043"/>
    <path d="M30.0783 6.04952C31.9484 7.25495 33.2253 9.26458 33.8806 11.3607C34.5496 13.5008 34.5354 15.7989 33.7445 17.9045C33.3007 19.088 32.5882 20.2082 31.5649 20.971C31.3905 21.1002 31.561 21.3981 31.7371 21.2664C33.6541 19.8375 34.544 17.369 34.6951 15.0519C34.8436 12.7702 34.1552 10.414 32.9253 8.49827C32.2296 7.4151 31.3363 6.45204 30.2505 5.75246C30.065 5.63278 29.8932 5.92854 30.0783 6.04779V6.04952Z" fill="#9C5043"/>
    <path d="M12.7161 4.88756C12.9425 4.29991 13.1289 3.69504 13.3782 3.11644C13.6382 2.50594 13.9772 1.9322 14.3865 1.40989C14.832 0.850222 15.4102 0.452427 16.1374 0.389572C16.8451 0.328439 17.5443 0.542407 18.1293 0.936756C18.7686 1.36727 19.2444 1.99237 19.6559 2.63469C19.7747 2.81938 20.0709 2.64804 19.9517 2.46249C19.5539 1.84169 19.1014 1.24715 18.5129 0.794685C17.9149 0.334898 17.1878 0.0494717 16.4288 0.0382784C16.0569 0.0299656 15.6872 0.0978621 15.3424 0.237795C14.9977 0.377727 14.6853 0.586735 14.4244 0.851946C13.9116 1.36856 13.5112 2.03542 13.1987 2.6898C12.8741 3.36914 12.6567 4.09542 12.3863 4.7993C12.3071 5.00466 12.6377 5.09377 12.7161 4.89014V4.88756Z" fill="#9C5043"/>
    <path d="M26.9994 21.5527C28.2229 21.3021 29.4671 20.9547 30.728 21.0486C30.998 21.0688 31.2907 21.1161 31.5219 21.2423C31.7161 21.3482 31.8426 21.5045 31.8663 21.7111C31.949 22.4318 31.1194 22.7486 30.5657 22.951C30.0922 23.1232 29.6001 23.2558 29.1115 23.3849C28.73 23.4857 28.3365 23.5735 27.971 23.7216C27.7696 23.8034 27.8574 24.1345 28.0619 24.0518C28.4063 23.9119 28.7774 23.8271 29.1381 23.7319C29.5928 23.6118 30.0474 23.4917 30.4925 23.3393C31.1745 23.1055 32.125 22.7598 32.2073 21.9272C32.2361 21.6388 32.1582 21.3499 31.9533 21.1394C31.7483 20.9289 31.4586 20.8234 31.1783 20.7666C30.4288 20.6137 29.6328 20.7115 28.885 20.826C28.219 20.9276 27.5676 21.0877 26.9085 21.2225C26.6933 21.2655 26.7841 21.5966 26.9994 21.5527Z" fill="#9C5043"/>
    <path d="M16.9053 29.7362C17.0461 30.3251 17.4039 30.9261 17.9032 31.2783C18.1482 31.4505 18.4199 31.4936 18.7113 31.4372C19.0028 31.3808 19.314 31.2111 19.4316 30.9231C19.4992 30.7587 19.4841 30.5839 19.4488 30.4134C19.4156 30.2528 19.3545 30.0849 19.3786 29.9183C19.392 29.827 19.3562 29.7345 19.2594 29.7082C19.1789 29.6858 19.0622 29.7358 19.0488 29.8275C19.0287 29.9728 19.0341 30.1205 19.0648 30.264C19.0884 30.3815 19.1281 30.4986 19.1371 30.6188C19.1552 30.868 18.9537 31.0127 18.7354 31.079C18.5172 31.1453 18.3049 31.1358 18.1116 31.0071C17.8989 30.8672 17.7276 30.6627 17.5898 30.4474C17.4267 30.2015 17.3068 29.9295 17.2355 29.6432C17.1843 29.428 16.8545 29.5197 16.9053 29.734V29.7362Z" fill="#9C5043"/>
    <path d="M25.3304 3.18731C25.9482 2.74958 26.6097 2.37706 27.3043 2.07572C27.9789 1.7847 28.7681 1.53112 29.4935 1.7834C30.079 1.98747 30.4789 2.51011 30.7475 3.04524C31.0429 3.63245 31.225 4.29372 31.3154 4.93949C31.4179 5.67652 31.4015 6.42647 31.4544 7.16738C31.4699 7.38565 31.8122 7.38737 31.7967 7.16738C31.7468 6.45532 31.7536 5.73679 31.6675 5.02774C31.5861 4.31678 31.3917 3.62338 31.0915 2.97377C30.8177 2.39387 30.4053 1.8299 29.8125 1.54705C29.0983 1.20609 28.2928 1.33611 27.5738 1.59872C26.7143 1.92154 25.9009 2.35576 25.1543 2.89025C24.9757 3.01639 25.1466 3.31301 25.3265 3.18558L25.3304 3.18731Z" fill="#9C5043"/>
    <path d="M22.9834 29.7494C22.9355 29.9949 22.8705 30.2367 22.7888 30.4731C22.7446 30.5983 22.6869 30.7182 22.6166 30.8309C22.5912 30.8742 22.5607 30.9144 22.5258 30.9505C22.4932 30.9885 22.4538 31.0201 22.4096 31.0435C22.4031 31.0474 22.3712 31.062 22.4001 31.05C22.3903 31.0541 22.3802 31.0575 22.37 31.0603C22.3547 31.0651 22.3392 31.0689 22.3235 31.072C22.3308 31.072 22.3557 31.072 22.3209 31.072C22.2394 31.0762 22.1578 31.072 22.0772 31.0595C21.9598 31.0465 21.847 31.0067 21.7474 30.9432C21.7199 30.926 21.7405 30.9432 21.7134 30.9165C21.6953 30.8993 21.6777 30.8812 21.6609 30.8627C21.6299 30.8279 21.6721 30.8799 21.6562 30.8567C21.6493 30.8468 21.6424 30.8369 21.6359 30.8266C21.622 30.8042 21.6094 30.781 21.598 30.7572C21.5856 30.7318 21.6118 30.7947 21.5955 30.7516C21.592 30.7426 21.5886 30.7336 21.5856 30.7245C21.5778 30.7013 21.5709 30.678 21.5649 30.6548C21.5589 30.6307 21.5537 30.607 21.5494 30.5829C21.5494 30.5704 21.5451 30.5584 21.5434 30.5463C21.5417 30.5342 21.5434 30.5364 21.5434 30.5545C21.5434 30.5446 21.5434 30.5347 21.5399 30.5248C21.521 30.3095 21.5399 30.0943 21.5171 29.8824C21.5064 29.7907 21.4461 29.7102 21.3449 29.7102C21.2588 29.7102 21.1628 29.789 21.1727 29.8824C21.2239 30.3246 21.1008 30.8524 21.4921 31.1787C21.6091 31.274 21.7469 31.3403 21.8942 31.3724C22.0634 31.4112 22.264 31.4392 22.435 31.3966C22.7268 31.3234 22.9115 31.0375 23.0265 30.7801C23.1536 30.4775 23.2483 30.1623 23.3089 29.8398C23.352 29.6246 23.0243 29.5333 22.9791 29.749L22.9834 29.7494Z" fill="#9C5043"/>
    <path d="M19.7139 10.0055C19.5369 10.5479 19.9102 10.9711 20.4027 11.1377C20.6757 11.2325 20.9743 11.2219 21.24 11.1081C21.5057 10.9942 21.7192 10.7852 21.8389 10.5221L21.5138 10.479C21.7218 10.9862 22.1699 11.3831 22.7231 11.4597C23.0008 11.4981 23.294 11.4464 23.5084 11.2553C23.6079 11.1676 23.6808 11.0538 23.7189 10.9268C23.7569 10.7998 23.7586 10.6646 23.7236 10.5367C23.6599 10.3172 23.3164 10.4106 23.3792 10.6314C23.3989 10.7088 23.3927 10.7905 23.3616 10.864C23.3305 10.9376 23.2762 10.9989 23.207 11.0387C23.0378 11.1446 22.8157 11.1313 22.6314 11.0783C22.4589 11.0273 22.2999 10.9386 22.1658 10.8186C22.0318 10.6985 21.9262 10.5502 21.8565 10.3843C21.8061 10.2616 21.6016 10.1854 21.5315 10.3413C21.3519 10.7412 20.9443 10.9328 20.5267 10.8032C20.1986 10.7012 19.936 10.4618 20.0531 10.0989C20.1241 9.88063 19.7806 9.78678 19.7087 10.0042L19.7139 10.0055Z" fill="#9C5043"/>
    <path d="M19.9117 10.6825C19.6125 11.1561 19.405 11.7256 19.4356 12.2952C19.467 12.8885 19.7684 13.3952 20.2536 13.7305C21.2489 14.4163 22.7208 14.2041 23.3274 13.1106C23.6456 12.5367 23.6843 11.8539 23.5681 11.2194C23.525 10.9942 23.1836 11.0902 23.2237 11.3141C23.3959 12.2569 23.1001 13.3805 22.0893 13.6948C21.1495 13.9875 19.9212 13.4434 19.7968 12.3951C19.7326 11.8544 19.9328 11.3132 20.2165 10.862C20.3388 10.6674 20.031 10.4888 19.9092 10.6825H19.9117Z" fill="#9C5043"/>
    <path d="M35.846 13.0437C36.2098 12.8444 36.5304 12.575 36.7894 12.251C37.0484 11.9271 37.2407 11.555 37.355 11.1563C37.3201 11.6497 37.3916 12.1568 37.6111 12.5998C37.8307 13.0428 38.2074 13.4178 38.6723 13.5848C38.2991 13.7458 37.8974 13.8375 37.5306 14.0153C37.1638 14.1931 36.8207 14.479 36.7152 14.8716C36.785 14.4463 36.5323 14.0416 36.2908 13.6843C36.0798 13.3726 35.7741 13.02 35.4073 13.0992" fill="#FDE41B"/>
    <path d="M35.9315 13.1915C36.7027 12.764 37.2734 12.0489 37.5193 11.2021L37.183 11.1565C37.1167 12.2246 37.5679 13.3521 38.6265 13.7499V13.4206C37.8607 13.7435 36.821 13.9002 36.5498 14.8258L36.886 14.8688C36.9523 14.3724 36.6643 13.9101 36.3874 13.5226C36.1429 13.1782 35.8162 12.8532 35.3615 12.9311C35.1463 12.9685 35.2367 13.2983 35.4524 13.2613C35.7714 13.2062 36.0207 13.5859 36.1713 13.811C36.384 14.1288 36.5967 14.4714 36.5437 14.8688C36.5175 15.0647 36.8274 15.0931 36.8795 14.9144C37.1055 14.1425 38.0849 14.0151 38.7174 13.7482C38.8736 13.6823 38.884 13.4813 38.7174 13.4184C37.8034 13.074 37.4689 12.055 37.5253 11.1548C37.5373 10.9585 37.2416 10.9279 37.1895 11.1092C36.9678 11.8702 36.4533 12.5122 35.7589 12.8945C35.566 13.0008 35.7387 13.2962 35.9311 13.1898L35.9315 13.1915Z" fill="#FBA41C"/>
    <path d="M34.7344 9.66227C34.9407 9.58616 35.1281 9.46658 35.2841 9.31163C35.4401 9.15668 35.561 8.96999 35.6384 8.76422C35.6213 9.00103 35.6642 9.23834 35.7632 9.45417C35.8621 9.67 36.014 9.85736 36.2046 9.99893C36.0153 10.0059 35.8315 10.0649 35.6734 10.1693C35.5154 10.2737 35.389 10.4195 35.3083 10.5909C35.3022 10.399 35.2492 10.2115 35.1539 10.0449C35.0586 9.87829 34.9239 9.73758 34.7615 9.63515" fill="#FDE41B"/>
    <path d="M34.7801 9.82727C35.0139 9.74117 35.2264 9.60569 35.4031 9.43007C35.5799 9.25444 35.7167 9.0428 35.8043 8.80954L35.468 8.76434C35.4517 9.03117 35.5029 9.29781 35.6167 9.53969C35.7305 9.78157 35.9034 9.99092 36.1194 10.1484C36.1481 10.0422 36.1768 9.9359 36.2055 9.82942C35.9866 9.83747 35.7739 9.90463 35.5901 10.0238C35.4063 10.1429 35.2582 10.3096 35.1615 10.5062L35.4805 10.5923C35.4727 10.3709 35.4112 10.1548 35.3011 9.96253C35.1911 9.77028 35.0359 9.60772 34.849 9.48889C34.6625 9.3705 34.4908 9.66669 34.6768 9.78465C34.8132 9.87206 34.9264 9.99115 35.0068 10.1318C35.0873 10.2724 35.1325 10.4304 35.1387 10.5923C35.1439 10.7494 35.3806 10.8411 35.4573 10.6784C35.5238 10.5335 35.6287 10.4095 35.7607 10.32C35.8927 10.2306 36.0467 10.1789 36.2059 10.1708C36.3859 10.1639 36.4251 9.95039 36.292 9.85181C35.9549 9.60211 35.7806 9.17849 35.8103 8.7652C35.8103 8.72397 35.7952 8.68417 35.768 8.65325C35.7407 8.62233 35.7031 8.60244 35.6622 8.5973C35.6215 8.59194 35.5802 8.60132 35.5457 8.62374C35.5113 8.64616 35.4861 8.68015 35.4745 8.71957C35.4054 8.89709 35.2997 9.05812 35.1645 9.19227C35.0292 9.32642 34.8673 9.4307 34.6892 9.49836C34.6461 9.51148 34.6097 9.54062 34.5875 9.57978C34.5652 9.61894 34.5588 9.66514 34.5696 9.70888C34.5924 9.79197 34.6931 9.86085 34.7801 9.82813V9.82727Z" fill="#FBA41C"/>
    <path d="M0.666511 13.6733C1.5172 13.3444 1.77637 12.1015 1.78068 11.2921C1.98259 11.7127 2.14532 12.3318 2.49404 12.6185C2.84275 12.9052 3.28488 13.1046 3.7352 13.0719C3.56299 13.0843 3.34558 13.2393 3.21126 13.3396C3.04798 13.4613 2.90525 13.6084 2.7885 13.7753C2.57583 14.0767 2.37521 14.5046 2.44409 14.883C2.48715 14.7465 2.40104 14.5502 2.3313 14.4288C2.19487 14.1951 2.01395 13.9903 1.79876 13.8261C1.4974 13.6035 1.01867 13.6367 0.665649 13.6823" fill="#FDE41B"/>
    <path d="M0.711808 13.8385C1.67572 13.4511 1.94264 12.2267 1.95168 11.2925L1.6331 11.3786C1.83372 11.8044 1.95211 12.2917 2.27629 12.6469C2.46393 12.8432 2.69085 12.9978 2.94224 13.1005C3.19363 13.2032 3.46385 13.2518 3.73529 13.2431V12.8987C3.31898 12.9521 2.92937 13.303 2.6857 13.6259C2.40673 13.9961 2.20783 14.4567 2.28016 14.9269C2.30599 15.0952 2.57592 15.0849 2.60993 14.9269C2.70852 14.4705 2.27069 13.9797 1.94221 13.7214C1.57972 13.4381 1.09927 13.4571 0.666602 13.5109C0.451346 13.538 0.448333 13.8803 0.666602 13.8532C0.98432 13.8136 1.37393 13.764 1.66151 13.9393C1.82432 14.048 1.965 14.1866 2.0761 14.3478C2.1665 14.4714 2.31546 14.6733 2.28016 14.8365H2.60993C2.55569 14.4847 2.74942 14.1149 2.9509 13.8402C3.05705 13.6968 3.18401 13.57 3.3276 13.464C3.44254 13.3779 3.58892 13.2608 3.73529 13.2418C3.94667 13.2147 3.96088 12.8875 3.73529 12.8974C3.28153 12.9224 2.75114 12.7089 2.46872 12.3425C2.21042 12.0101 2.10537 11.5779 1.92843 11.2025C1.85309 11.0428 1.61115 11.1293 1.60985 11.2886C1.60904 11.7212 1.5363 12.1507 1.3946 12.5595C1.25683 12.9469 1.01575 13.3447 0.619678 13.5066C0.418199 13.588 0.506022 13.919 0.710515 13.8364L0.711808 13.8385Z" fill="#FBA41C"/>
    <path d="M4.36465 10.7426C4.52819 10.6952 4.67066 10.5934 4.76851 10.4541C4.86636 10.3147 4.91373 10.1462 4.90279 9.97626C4.98323 10.206 5.12078 10.4116 5.3025 10.5736C5.48422 10.7355 5.70415 10.8487 5.94161 10.9023C5.83571 10.8226 5.6833 10.8868 5.57482 10.9617C5.32965 11.1306 5.12113 11.3474 4.96177 11.5989C4.93233 11.4403 4.86118 11.2924 4.75562 11.1704C4.65007 11.0484 4.51393 10.9568 4.36121 10.9049" fill="#FDE41B"/>
    <path d="M4.4096 10.9069C4.8104 10.7949 5.10401 10.395 5.07344 9.97653L4.73721 10.0196C4.82661 10.2774 4.97967 10.5084 5.1822 10.6912C5.38474 10.874 5.63016 11.0027 5.89572 11.0653C5.93519 11.0743 5.97658 11.0691 6.0126 11.0506C6.04863 11.0322 6.077 11.0016 6.09273 10.9643C6.10845 10.927 6.11053 10.8853 6.09859 10.8466C6.08666 10.808 6.06147 10.7747 6.02746 10.7527C5.77948 10.5909 5.50525 10.788 5.31324 10.9439C5.11774 11.1052 4.94916 11.2966 4.81384 11.5109L5.12639 11.5539C5.0884 11.367 5.00183 11.1933 4.87539 11.0505C4.74894 10.9077 4.5871 10.8007 4.40615 10.7403C4.19735 10.6688 4.1078 10.9986 4.31531 11.07C4.43914 11.1148 4.5489 11.1916 4.63344 11.2925C4.71798 11.3935 4.77429 11.515 4.79663 11.6448C4.82547 11.798 5.03599 11.8002 5.10918 11.6878C5.21057 11.5295 5.33294 11.3857 5.47296 11.2603C5.53792 11.2005 5.60776 11.1462 5.68175 11.098C5.72868 11.0679 5.80101 11.0175 5.85396 11.0524L5.9857 10.7398C5.77699 10.6935 5.58333 10.5953 5.42266 10.4543C5.26199 10.3133 5.13951 10.134 5.06656 9.93305C5.05508 9.89355 5.02984 9.85947 4.99541 9.83696C4.96098 9.81446 4.91963 9.80502 4.87885 9.81035C4.83805 9.81601 4.80064 9.83611 4.77339 9.86699C4.74614 9.89787 4.73086 9.9375 4.73032 9.97868C4.74123 10.1113 4.70613 10.2436 4.63094 10.3534C4.55575 10.4631 4.44505 10.5437 4.31747 10.5814C4.10608 10.6404 4.19606 10.9689 4.40873 10.9112L4.4096 10.9069Z" fill="#FBA41C"/>
    <path d="M5.59966 15.0994C5.76153 14.8842 6.13522 14.9035 6.29709 15.1192C6.45896 15.3349 6.39481 15.6737 6.18343 15.8412C6.0151 15.9755 5.74948 15.9979 5.58932 15.8537C5.42917 15.7095 5.44941 15.3991 5.64702 15.3125" fill="#FDE41B"/>
    <path d="M5.74708 15.1855C5.74708 15.1855 5.7221 15.2118 5.73502 15.2019C5.7384 15.1987 5.74157 15.1952 5.7445 15.1916C5.75181 15.1834 5.75956 15.1765 5.76731 15.1687C5.77103 15.1662 5.77449 15.1633 5.77764 15.1601C5.77764 15.1601 5.74664 15.1817 5.76128 15.1726C5.77592 15.1636 5.78109 15.1588 5.79142 15.1528C5.80175 15.1468 5.80735 15.1442 5.81553 15.1399C5.84738 15.1227 5.78496 15.1498 5.81208 15.1399C5.83222 15.1326 5.85278 15.1266 5.87365 15.1218C5.88277 15.1206 5.89182 15.1188 5.90077 15.1167C5.90077 15.1167 5.8603 15.1201 5.87838 15.1197H5.89689C5.9171 15.1182 5.93739 15.1182 5.9576 15.1197C5.96405 15.1197 6.00409 15.1244 5.97223 15.1197C5.94037 15.1149 5.97439 15.1197 5.98171 15.1197C6.00313 15.1239 6.02426 15.1295 6.04499 15.1365L6.05833 15.1412C6.08417 15.1498 6.04542 15.136 6.04327 15.1347C6.05059 15.1395 6.06049 15.1425 6.06867 15.1468C6.08791 15.1569 6.10646 15.1682 6.1242 15.1808C6.14831 15.1967 6.09751 15.1567 6.11861 15.1769L6.14229 15.1993C6.14874 15.2058 6.15434 15.2135 6.16123 15.22C6.1763 15.2346 6.1397 15.1894 6.15176 15.2075C6.15563 15.2131 6.15994 15.2187 6.16338 15.2243C6.17508 15.2424 6.18572 15.2613 6.19524 15.2807C6.20859 15.3074 6.18405 15.2475 6.19524 15.2764C6.19911 15.2889 6.20342 15.3013 6.20729 15.3143C6.21117 15.3272 6.21203 15.3332 6.21418 15.3431C6.21633 15.353 6.22236 15.3909 6.2172 15.3595C6.21203 15.328 6.2172 15.3642 6.2172 15.3715C6.2172 15.3788 6.2172 15.3948 6.2172 15.4064C6.2172 15.418 6.2172 15.4296 6.2172 15.4413C6.2172 15.4529 6.21246 15.4843 6.2172 15.4537C6.22193 15.4232 6.21719 15.4636 6.21375 15.4705C6.2103 15.4774 6.20858 15.4938 6.20557 15.505C6.19997 15.5261 6.19266 15.548 6.18534 15.5674C6.17458 15.5954 6.20213 15.5312 6.18534 15.5674C6.18017 15.5782 6.17501 15.5885 6.16898 15.5988C6.15822 15.6178 6.14573 15.6358 6.13324 15.6539C6.12076 15.672 6.1453 15.6389 6.14487 15.6393C6.14444 15.6397 6.13841 15.647 6.13497 15.6509C6.13152 15.6548 6.11732 15.6711 6.10784 15.6806L6.08546 15.7013L6.07039 15.7142C6.05704 15.7258 6.08459 15.7034 6.08416 15.7034C6.06264 15.7116 6.04111 15.7318 6.02045 15.7426C6.01141 15.7473 6.00065 15.7508 5.99161 15.7564C5.99161 15.7564 6.02519 15.7439 6.00797 15.7495L5.98773 15.7564C5.96584 15.7641 5.94339 15.7702 5.92057 15.7745C5.91339 15.7748 5.90629 15.7761 5.89948 15.7783C5.89948 15.7783 5.93693 15.7745 5.91842 15.7753L5.88699 15.7779H5.84997C5.84222 15.7779 5.80218 15.7732 5.83103 15.7779C5.85987 15.7827 5.82069 15.7779 5.81251 15.774C5.80433 15.7702 5.79228 15.7693 5.78238 15.7663C5.77248 15.7633 5.73933 15.7491 5.76387 15.7607C5.78841 15.7723 5.75353 15.7551 5.74708 15.7517C5.74062 15.7482 5.72684 15.7383 5.71608 15.7327C5.70532 15.7271 5.72985 15.7435 5.72985 15.7439C5.72604 15.7402 5.72202 15.7368 5.7178 15.7336L5.698 15.7151C5.69435 15.7106 5.69047 15.7062 5.68637 15.7021C5.67303 15.6897 5.70618 15.7323 5.69757 15.7164C5.68896 15.7004 5.6769 15.6772 5.66528 15.66C5.66528 15.66 5.6782 15.697 5.67432 15.6806C5.67432 15.675 5.67045 15.6694 5.66872 15.6643C5.667 15.6591 5.66226 15.6419 5.65968 15.6302L5.6571 15.6178C5.65193 15.5945 5.65968 15.6333 5.6571 15.6371C5.65773 15.6255 5.65773 15.6139 5.6571 15.6023C5.6571 15.5924 5.6571 15.582 5.6571 15.5717C5.6571 15.5614 5.6571 15.5605 5.6571 15.5545C5.6571 15.5351 5.64892 15.5932 5.65451 15.5743C5.66011 15.5553 5.66442 15.5312 5.67087 15.5127C5.67087 15.5071 5.67948 15.4912 5.67087 15.5175C5.66226 15.5437 5.67087 15.52 5.67087 15.5149C5.67087 15.5097 5.68077 15.4985 5.68594 15.4899C5.70359 15.4611 5.66399 15.5127 5.68164 15.4951L5.70532 15.4718C5.70919 15.4675 5.72297 15.4572 5.70101 15.4744C5.67906 15.4916 5.70101 15.4744 5.70446 15.4744C5.71413 15.4684 5.72419 15.4631 5.73459 15.4585C5.81639 15.421 5.84265 15.2966 5.79615 15.2243C5.7724 15.186 5.73485 15.1583 5.69126 15.1469C5.64768 15.1356 5.60139 15.1414 5.56196 15.1631C5.31528 15.2764 5.26404 15.598 5.36435 15.8253C5.47844 16.0836 5.80132 16.1697 6.05619 16.0943C6.18338 16.0559 6.29711 15.9822 6.38426 15.8819C6.4714 15.7816 6.5284 15.6587 6.54869 15.5274C6.57164 15.3885 6.55338 15.2461 6.49617 15.1175C6.44353 15.0034 6.3545 14.9099 6.24303 14.8519C6.11037 14.7841 5.95932 14.7611 5.81251 14.7864C5.66856 14.8122 5.54019 14.8928 5.45433 15.0112C5.43768 15.0406 5.43006 15.0743 5.43244 15.1081C5.43482 15.1418 5.44708 15.1741 5.4677 15.2009C5.48832 15.2277 5.51638 15.2479 5.54837 15.2588C5.58037 15.2698 5.6149 15.2711 5.64763 15.2626C5.6892 15.2482 5.72499 15.2207 5.74966 15.1842L5.74708 15.1855Z" fill="#FBA41C"/>
    <path d="M38.0422 8.55574C38.2403 8.37923 38.6019 8.53378 38.6549 8.79381C38.7078 9.05384 38.4913 9.31903 38.2312 9.37155C38.0371 9.41073 37.8119 9.33754 37.7146 9.16405C37.6173 8.99055 37.7064 8.72966 37.8997 8.68575" fill="#FDE41B"/>
    <path d="M38.1631 8.67414C38.1299 8.69223 38.1919 8.64961 38.1631 8.67414L38.1811 8.66295C38.185 8.66295 38.2164 8.64573 38.1893 8.65822C38.1622 8.6707 38.1936 8.65821 38.1979 8.65606C38.2022 8.65391 38.2569 8.64315 38.2264 8.64832C38.1958 8.65348 38.2298 8.64832 38.235 8.64832C38.2401 8.64832 38.2561 8.64832 38.2668 8.64832C38.2776 8.64832 38.3056 8.65391 38.2759 8.64832C38.2462 8.64272 38.2806 8.64832 38.2849 8.64832C38.3027 8.65193 38.3203 8.65682 38.3374 8.66295C38.34 8.66295 38.3572 8.6707 38.3577 8.67027C38.3508 8.67673 38.3228 8.65219 38.3521 8.67027L38.4041 8.70084C38.4317 8.71806 38.3942 8.69524 38.396 8.69395C38.4047 8.70058 38.4131 8.70777 38.4209 8.71547C38.4326 8.72623 38.4425 8.74088 38.455 8.75121C38.4674 8.76154 38.4326 8.71633 38.4515 8.74647L38.4631 8.76498C38.4687 8.77402 38.4735 8.78393 38.4791 8.7934C38.4692 8.75896 38.495 8.82181 38.4791 8.7934C38.4823 8.80998 38.4865 8.82636 38.4915 8.84248C38.4915 8.80201 38.4997 8.86572 38.4915 8.84248C38.4915 8.85109 38.4915 8.8597 38.4915 8.86831C38.4915 8.87692 38.4946 8.90103 38.4915 8.90705C38.4915 8.90705 38.4997 8.864 38.4915 8.89973C38.4861 8.92504 38.4794 8.95004 38.4713 8.97464C38.4683 8.98368 38.4571 9.0009 38.4739 8.96991C38.4687 8.97938 38.4644 8.98928 38.4593 8.99875C38.4498 9.0164 38.439 9.03233 38.4287 9.04955C38.4067 9.08528 38.4446 9.03233 38.4287 9.04955C38.4214 9.05816 38.4145 9.06677 38.4072 9.07495C38.3904 9.09303 38.3719 9.1081 38.3542 9.12532C38.3366 9.14254 38.3874 9.10336 38.3521 9.12532L38.3301 9.14039C38.3112 9.15244 38.2918 9.16277 38.272 9.17311C38.2345 9.19334 38.2952 9.16622 38.272 9.17311L38.2406 9.18387C38.2195 9.19029 38.1981 9.19561 38.1764 9.1998C38.1334 9.20884 38.2134 9.1998 38.1708 9.1998H38.1445C38.1229 9.20038 38.1011 9.19966 38.0795 9.19765C38.0455 9.19765 38.083 9.19765 38.086 9.19765C38.0729 9.19694 38.06 9.19433 38.0477 9.1899C38.0266 9.18473 38.0046 9.17741 37.9861 9.17053C37.9956 9.17483 38.0227 9.18301 37.9861 9.17053C37.9767 9.16622 37.9668 9.16062 37.9577 9.15545C37.9487 9.15029 37.8983 9.10939 37.9302 9.13867C37.9159 9.12575 37.9022 9.11327 37.8893 9.09906C37.8703 9.0672 37.8763 9.08485 37.8893 9.09906C37.8828 9.08787 37.8751 9.07796 37.869 9.06634C37.863 9.05472 37.8626 9.03534 37.863 9.05601C37.8686 9.06935 37.8686 9.06935 37.863 9.05601C37.863 9.04869 37.8587 9.04137 37.857 9.03405C37.8552 9.02673 37.8518 9.0121 37.8522 9.0121C37.8527 9.0121 37.8553 9.05515 37.8522 9.0121C37.8522 9.00262 37.8522 8.99315 37.8522 8.98325C37.8522 8.97335 37.8522 8.97206 37.8522 8.96603C37.8522 8.94709 37.8522 8.95097 37.8522 8.97766C37.8522 8.97766 37.8647 8.92772 37.8664 8.92212C37.8479 8.95484 37.8755 8.8851 37.8664 8.92212C37.872 8.91222 37.8768 8.90188 37.8824 8.89241C37.8861 8.88598 37.8903 8.8798 37.8949 8.8739C37.8789 8.89328 37.8768 8.89629 37.8884 8.88208L37.8957 8.8739C37.8957 8.8739 37.919 8.85065 37.9198 8.85152C37.8841 8.87476 37.9207 8.85238 37.9198 8.85152L37.9392 8.84118C37.9151 8.85065 37.9116 8.85238 37.9293 8.84592L37.9508 8.83989C37.9944 8.82762 38.0313 8.7987 38.0537 8.75939C38.0761 8.72007 38.0822 8.67352 38.0705 8.6298C38.0577 8.58653 38.0286 8.5499 37.9893 8.5276C37.9501 8.50529 37.9037 8.49902 37.86 8.51012C37.5991 8.57599 37.4725 8.86443 37.5242 9.11283C37.581 9.38061 37.8626 9.5356 38.1187 9.5412C38.2505 9.54165 38.38 9.50618 38.4932 9.4386C38.6063 9.37101 38.6989 9.27387 38.761 9.15761C38.8807 8.92728 38.8605 8.63712 38.659 8.45889C38.4575 8.28066 38.1424 8.23632 37.9271 8.42316C37.8953 8.45539 37.8775 8.49885 37.8775 8.54413C37.8775 8.58941 37.8953 8.63288 37.9271 8.66511C37.9597 8.69621 38.0031 8.71356 38.0481 8.71356C38.0932 8.71356 38.1365 8.69621 38.1691 8.66511L38.1631 8.67414Z" fill="#FBA41C"/>
    <path d="M5.85356 28.5098C6.58156 29.2799 7.4796 29.9305 8.50724 30.2318C9.58954 30.5469 10.7257 30.3898 11.7025 29.8353C12.4305 29.422 13.0435 28.8301 13.5688 28.1843C13.7117 28.0078 13.4616 27.7538 13.3169 27.9324C12.5174 28.9162 11.4859 29.7944 10.1974 30.0023C9.21241 30.1612 8.2231 29.856 7.39264 29.3338C6.9198 29.0307 6.48716 28.669 6.10498 28.2575C5.94742 28.0904 5.69599 28.3436 5.85356 28.5093V28.5098Z" fill="#9C5043"/>
    <path d="M9.19367 21.1159C6.99419 21.0509 5.00436 22.7282 4.70946 24.9122C4.60564 25.6899 4.70777 26.4813 5.00566 27.2072C5.09176 27.4164 5.43617 27.3247 5.35006 27.1129C4.90449 26.0298 4.91223 24.7839 5.4409 23.7317C5.88429 22.8505 6.62715 22.1562 7.5362 21.7733C8.06153 21.5565 8.62693 21.4537 9.19496 21.4719C9.42399 21.4788 9.42399 21.1228 9.19496 21.1159H9.19367Z" fill="#9C5043"/>
    <path d="M5.81722 26.9249C5.60809 26.9508 5.40455 27.0104 5.2145 27.1014C5.04961 27.181 4.87827 27.2882 4.76289 27.432C4.63374 27.5922 4.54764 27.8078 4.65053 28.0046C4.75342 28.2013 4.97901 28.2483 5.17145 28.2913C5.41154 28.345 5.65739 28.3686 5.90332 28.3615C5.92743 28.3627 5.95153 28.3589 5.97417 28.3505C5.9968 28.3421 6.01748 28.3292 6.03497 28.3126C6.05245 28.2959 6.06638 28.2759 6.07589 28.2537C6.0854 28.2315 6.09031 28.2076 6.09031 28.1835C6.09031 28.1593 6.0854 28.1354 6.07589 28.1132C6.06638 28.0911 6.05245 28.071 6.03497 28.0544C6.01748 28.0377 5.9968 28.0248 5.97417 28.0164C5.95153 28.008 5.92743 28.0043 5.90332 28.0055C5.81722 28.008 5.7281 28.0055 5.64028 28.0016C5.59723 27.999 5.55417 27.9951 5.51112 27.99L5.48056 27.9865H5.47797C5.4543 27.9835 5.43105 27.9796 5.4078 27.9757C5.32081 27.9613 5.2346 27.9425 5.14949 27.9194C5.11161 27.909 5.07329 27.8987 5.03627 27.8853L5.01302 27.8767C5.01647 27.8767 5.03584 27.8875 5.01819 27.8767C5.00915 27.872 4.96868 27.8466 4.99279 27.8655C4.98722 27.8599 4.98133 27.8546 4.97514 27.8496C4.95534 27.8371 4.98375 27.8681 4.97514 27.8496C4.97198 27.8431 4.96824 27.8369 4.96395 27.8311C4.96395 27.8311 4.976 27.8604 4.96825 27.841C4.96678 27.8343 4.96491 27.8277 4.96265 27.8212C4.96265 27.8242 4.96265 27.8539 4.96265 27.8345C4.96265 27.8152 4.96524 27.7829 4.95921 27.8186C4.96216 27.8019 4.96618 27.7853 4.97126 27.7691C4.97384 27.7618 4.97643 27.7549 4.97858 27.7476C4.97858 27.751 4.96609 27.7721 4.976 27.7549C4.99365 27.7252 5.00914 27.6951 5.02938 27.6688C5.01087 27.6946 5.04187 27.655 5.04789 27.6486C5.05392 27.6421 5.06985 27.6249 5.08147 27.6141C5.0931 27.6034 5.10429 27.5926 5.11634 27.5823L5.13443 27.5676C5.11678 27.5814 5.14433 27.5607 5.14992 27.5569C5.21505 27.51 5.28354 27.468 5.35485 27.4311C5.38584 27.4148 5.44095 27.3881 5.45903 27.3816L5.47195 27.3765L5.50639 27.3636C5.52964 27.3549 5.55288 27.3472 5.57656 27.3399C5.61746 27.327 5.65922 27.3153 5.70141 27.3054C5.72509 27.2998 5.7492 27.2951 5.77373 27.2904L5.80086 27.2856C5.80559 27.2856 5.84391 27.2787 5.81765 27.2826C5.90935 27.2706 6.00018 27.2094 5.99545 27.1048C5.99157 27.0187 5.91623 26.9137 5.81765 26.9266L5.81722 26.9249Z" fill="#9C5043"/>
    <path d="M10.284 22.6853C10.284 22.6521 10.284 22.619 10.2883 22.5863L10.2922 22.5493C10.2922 22.5411 10.2922 22.5329 10.2952 22.5247C10.2915 22.5514 10.2915 22.5549 10.2952 22.535C10.3046 22.478 10.317 22.4216 10.3323 22.3659C10.3413 22.3344 10.3512 22.303 10.3628 22.272C10.3667 22.2604 10.3714 22.2488 10.3757 22.2371C10.38 22.2255 10.3818 22.2216 10.3852 22.2143C10.3736 22.2414 10.3714 22.2462 10.3792 22.229C10.3869 22.2117 10.4007 22.1859 10.4132 22.1674C10.4291 22.1407 10.3861 22.2023 10.4166 22.1674C10.3805 22.1894 10.4369 22.1429 10.4166 22.1674C10.4528 22.1454 10.3813 22.1747 10.4119 22.1674C10.4575 22.1579 10.3775 22.1674 10.4085 22.1674C10.4162 22.1674 10.4274 22.1674 10.4352 22.1674C10.4029 22.1622 10.396 22.1618 10.4145 22.1674L10.4321 22.1721C10.4494 22.1782 10.4442 22.1756 10.4158 22.1644C10.4215 22.1668 10.4271 22.1695 10.4326 22.1726C10.4407 22.1769 10.4485 22.1825 10.4567 22.1872C10.4649 22.1919 10.467 22.1941 10.4433 22.1764L10.4571 22.1889C10.4627 22.1941 10.4872 22.2255 10.4687 22.1988C10.4502 22.1721 10.4743 22.2092 10.4773 22.2143C10.4804 22.2195 10.4894 22.2466 10.4976 22.2535C10.4868 22.2281 10.4851 22.2242 10.4915 22.2419L10.4954 22.2522C10.4997 22.2664 10.504 22.2806 10.5075 22.2953C10.5104 22.3213 10.5153 22.347 10.5221 22.3723C10.5182 22.3435 10.5178 22.3387 10.5221 22.3581L10.5247 22.3805C10.5247 22.3956 10.5277 22.4102 10.5294 22.4235C10.5307 22.4704 10.5493 22.5152 10.5815 22.5493C10.615 22.5824 10.6601 22.6012 10.7072 22.6013C10.7959 22.5975 10.8949 22.5226 10.8855 22.4235C10.8791 22.2974 10.8499 22.1734 10.7994 22.0576C10.7712 22.0016 10.7318 21.9521 10.6835 21.9121C10.6353 21.8721 10.5793 21.8425 10.5191 21.8251C10.454 21.806 10.3847 21.8059 10.3195 21.8248C10.2543 21.8438 10.1958 21.8809 10.151 21.9319C10.0748 22.0327 10.0205 22.1485 9.99173 22.2716C9.95376 22.4063 9.93364 22.5454 9.93188 22.6853C9.93222 22.7323 9.95107 22.7774 9.98434 22.8107C10.0176 22.8439 10.0626 22.8628 10.1097 22.8631C10.1566 22.8622 10.2014 22.8432 10.2346 22.8101C10.2678 22.7769 10.2869 22.7322 10.2879 22.6853H10.284Z" fill="#9C5043"/>
    <path d="M7.01301 23.5996C7.0866 23.5042 7.17743 23.4235 7.28079 23.3616C7.36689 23.309 7.49992 23.2324 7.60066 23.2419C7.59635 23.2419 7.6549 23.2604 7.63424 23.2505C7.61357 23.2406 7.64543 23.2578 7.64931 23.2608C7.66524 23.2737 7.63768 23.2341 7.65619 23.269C7.65619 23.2724 7.67643 23.297 7.65878 23.269C7.6648 23.278 7.68977 23.3288 7.67858 23.3009C7.68884 23.3288 7.69648 23.3576 7.7014 23.387C7.69666 23.3607 7.70398 23.43 7.70398 23.4391C7.70442 23.4665 7.70312 23.494 7.7001 23.5213C7.70355 23.4924 7.69365 23.5514 7.69107 23.5617C7.68289 23.5958 7.67298 23.6289 7.66179 23.6621C7.58547 23.8759 7.44656 24.0617 7.26313 24.1955C7.16852 24.2661 7.0619 24.3191 6.94843 24.3517C6.90287 24.3674 6.85392 24.3703 6.80679 24.3603C6.79654 24.3565 6.78672 24.3516 6.77752 24.3457C6.75083 24.3182 6.76417 24.3311 6.76848 24.3375C6.76848 24.3375 6.74566 24.2876 6.75384 24.3108C6.74508 24.2885 6.74055 24.2647 6.74049 24.2407C6.73891 24.2064 6.74035 24.1722 6.7448 24.1382C6.74136 24.1627 6.74954 24.1175 6.7504 24.1141C6.75427 24.0947 6.75901 24.0754 6.76374 24.056C6.77364 24.0172 6.78484 23.9793 6.79819 23.9415C6.84959 23.7975 6.92888 23.6651 7.03152 23.5518C7.06396 23.518 7.08207 23.4728 7.08207 23.4259C7.08207 23.379 7.06396 23.3339 7.03152 23.3C6.9979 23.2672 6.95279 23.2488 6.90581 23.2488C6.85883 23.2488 6.81372 23.2672 6.7801 23.3C6.53859 23.5691 6.32849 23.9759 6.39651 24.3479C6.41349 24.4456 6.46237 24.5349 6.53551 24.6019C6.60865 24.6689 6.70193 24.7098 6.80077 24.7181C6.98029 24.737 7.16412 24.6647 7.31738 24.5799C7.62108 24.4102 7.85603 24.1398 7.98166 23.8153C8.09144 23.5368 8.11081 23.1265 7.82022 22.9491C7.61917 22.826 7.3699 22.913 7.17789 23.0103C6.99088 23.109 6.8289 23.2492 6.70433 23.4201C6.64621 23.4967 6.69228 23.619 6.76805 23.6634C6.85931 23.7167 6.9536 23.6767 7.01172 23.5996H7.01301Z" fill="#9C5043"/>
    <path d="M5.81293 25.1935L5.85598 25.1569L5.82025 25.1849C5.89947 25.124 5.98631 25.0736 6.07855 25.0351L6.0355 25.0532C6.09649 25.0254 6.1607 25.0053 6.22665 24.9933L6.1793 24.9998C6.18531 24.9992 6.19137 24.9992 6.19738 24.9998L6.15002 24.9933C6.15592 24.9938 6.16173 24.9951 6.16724 24.9972L6.12419 24.9796C6.12925 24.9814 6.13393 24.9842 6.13797 24.9877L6.1018 24.9598C6.10539 24.9629 6.10857 24.9666 6.11127 24.9705L6.08329 24.9344C6.08587 24.9383 6.08803 24.9425 6.08975 24.9468L6.07167 24.9038C6.07503 24.9131 6.07733 24.9228 6.07855 24.9326L6.0721 24.8853C6.07856 24.9559 6.0721 25.0286 6.0721 25.1005V25.3291C6.07255 25.3762 6.09143 25.4211 6.12467 25.4544C6.15792 25.4876 6.20289 25.5065 6.2499 25.5069C6.29682 25.5061 6.34158 25.4871 6.3748 25.4539C6.40803 25.4208 6.42714 25.3761 6.42813 25.3291V24.9847C6.43271 24.927 6.42807 24.8688 6.41436 24.8125C6.39892 24.7626 6.36732 24.7193 6.32452 24.6894C6.28172 24.6594 6.23017 24.6446 6.17801 24.6472C6.11774 24.6533 6.05863 24.6678 6.00236 24.6903C5.94542 24.7102 5.88977 24.7336 5.83575 24.7604C5.73626 24.8105 5.64353 24.873 5.55979 24.9464C5.52643 24.9798 5.50769 25.0251 5.50769 25.0723C5.50769 25.1196 5.52643 25.1648 5.55979 25.1983C5.59374 25.2306 5.63882 25.2487 5.68571 25.2487C5.7326 25.2487 5.77769 25.2306 5.81164 25.1983L5.81293 25.1935Z" fill="#9C5043"/>
    <path d="M7.90654 21.8522C7.78984 22.0222 7.6974 22.2077 7.63188 22.4032C7.61631 22.4465 7.61315 22.4932 7.62273 22.5382C7.63232 22.5831 7.65427 22.6245 7.68612 22.6577C7.74209 22.7149 7.81958 22.7287 7.89535 22.7373C7.98833 22.7469 8.08227 22.7351 8.17002 22.7029C8.28122 22.6649 8.38043 22.5982 8.45759 22.5096C8.48998 22.4756 8.50869 22.4308 8.51012 22.3839C8.50958 22.3367 8.49075 22.2917 8.45759 22.2582C8.39216 22.1979 8.26946 22.1815 8.20618 22.2582C8.18743 22.2806 8.16684 22.3015 8.14462 22.3206C8.13342 22.3296 8.11448 22.3369 8.15495 22.3124L8.13988 22.3232C8.12709 22.3319 8.11387 22.3399 8.10027 22.3473L8.08391 22.3559C8.07918 22.3559 8.0499 22.3709 8.08004 22.3585C8.11018 22.346 8.08004 22.3585 8.0753 22.3585L8.05808 22.3645C8.0288 22.3742 7.99867 22.3811 7.9681 22.3852L8.01546 22.3791C7.97258 22.3845 7.92919 22.3845 7.88631 22.3791L7.93366 22.3856C7.91963 22.3812 7.90521 22.3782 7.89061 22.3765C7.89061 22.3765 7.93108 22.3968 7.91042 22.3843C7.92945 22.3937 7.944 22.4103 7.95089 22.4304C7.96552 22.4626 7.97069 22.4687 7.96595 22.4484L7.97241 22.4958C7.97135 22.489 7.97135 22.482 7.97241 22.4751L7.96595 22.5225C7.97842 22.4765 7.99454 22.4316 8.01417 22.3882C8.02149 22.3705 8.01977 22.3748 8.009 22.4002L8.01761 22.3796C8.02235 22.3697 8.02666 22.3593 8.03139 22.3494C8.04172 22.3275 8.05206 22.3064 8.06282 22.2844C8.10685 22.1967 8.1566 22.112 8.21177 22.0308C8.23535 21.9901 8.24188 21.9417 8.22995 21.8961C8.21802 21.8506 8.18859 21.8116 8.14806 21.7876C8.10703 21.7649 8.05884 21.7588 8.01348 21.7707C7.96811 21.7826 7.92905 21.8114 7.90439 21.8513L7.90654 21.8522Z" fill="#9C5043"/>
</svg>
